<?xml version="1.0" standalone="no"?>
<!DOCTYPE svg PUBLIC "-//W3C//DTD SVG 20010904//EN"
 "http://www.w3.org/TR/2001/REC-SVG-20010904/DTD/svg10.dtd">
<svg version="1.0" xmlns="http://www.w3.org/2000/svg"
 width="512.000000pt" height="512.000000pt" viewBox="0 0 512.000000 512.000000"
 preserveAspectRatio="xMidYMid meet">
<metadata>
Created by potrace 1.14, written by Peter Selinger 2001-2017
</metadata>
<g transform="translate(0.000000,512.000000) scale(0.100000,-0.100000)"
fill="#000000" stroke="none">
<path d="M1185 5109 c-390 -26 -618 -114 -832 -322 -229 -223 -317 -451 -344
-900 -15 -256 -7 -2697 10 -2822 44 -329 132 -526 320 -716 222 -224 445 -311
866 -339 198 -13 2512 -13 2710 0 421 28 644 115 866 339 188 190 276 387 320
716 17 125 25 2566 10 2822 -27 440 -106 656 -324 880 -217 224 -448 314 -872
343 -177 12 -2551 11 -2730 -1z m1715 -1069 l0 -229 38 -6 c309 -53 521 -172
654 -367 39 -58 131 -238 124 -245 -4 -4 -609 -93 -612 -90 -1 1 -12 22 -24
46 -30 60 -112 145 -174 180 -157 89 -406 106 -584 39 -77 -29 -145 -98 -166
-169 -20 -64 -20 -99 -3 -167 30 -112 122 -193 264 -230 43 -12 182 -32 309
-46 126 -14 270 -33 320 -41 402 -69 570 -192 646 -472 17 -64 21 -108 22
-243 1 -148 -2 -172 -22 -230 -49 -139 -151 -250 -299 -324 -118 -59 -288
-107 -434 -123 l-59 -6 0 -233 0 -234 -340 0 -340 0 0 229 0 228 -52 6 c-152
18 -358 102 -470 191 -115 91 -204 233 -267 425 -17 52 -29 96 -27 99 4 3 568
71 601 72 6 0 18 -31 28 -68 50 -194 211 -301 477 -318 182 -12 373 25 467 90
112 77 152 290 71 382 -68 77 -171 109 -537 169 -392 65 -530 100 -674 171
-171 85 -263 197 -308 374 -21 83 -19 327 4 410 70 261 253 412 580 481 l107
22 0 229 0 228 340 0 340 0 0 -230z"/>
</g>
</svg>
